<svg width="92" height="65" viewBox="0 0 92 65" fill="none" xmlns="http://www.w3.org/2000/svg">
<path d="M17.8132 59.1429C16.9231 57.4615 17.2198 55.5824 17.2198 53.8022V39.8572C17.022 37.6813 18.011 35.5055 19.6923 34.1209C22.5604 31.6484 22.8571 30.2637 22.1648 25.8132C19.8901 28.4835 17.8132 30.8572 15.6374 33.3297C14.0549 35.3077 12.1758 37.0879 9.99999 38.5714C7.03296 40.4506 3.86813 39.9561 0.901093 37.0879C7.92307 38.7692 11.1868 34.4176 14.4505 29.967C16.8242 26.8022 18.9011 23.4396 20.4835 19.8791C21.967 16.3187 24.7363 13.5495 26.3187 9.98903C26.9121 8.60441 28.5934 8.1099 29.978 7.7143C35.2198 6.03298 40.6593 5.43957 46.0989 5.73627C52.4286 6.13188 52.4286 6.13188 55.0989 0.197815C58.3626 4.84617 63.4066 7.9121 68.945 8.80221C70.5275 9.09891 69.8352 11.0769 70.7253 11.8681C70.8242 11.7692 70.9231 11.5714 70.9231 11.3736C71.1209 10.3846 70.2308 9.09891 71.5165 8.4066C71.9121 8.2088 72.4066 8.90111 72.7033 9.39562C73.6923 10.7802 73.8901 12.5604 73.3956 14.1429C73.1978 14.7363 72.6044 14.5385 72.3077 14.1429C71.9121 13.5495 71.5165 12.9561 71.1209 12.3626C70.6264 12.4615 70.2308 12.9561 70.3297 13.4506C70.3297 13.5495 70.4286 13.7473 70.4286 13.8462C72.3077 17.9011 71.4176 21.8572 70.033 25.8132C68.7472 29.6703 67.956 33.8242 67.8571 37.8791C72.4066 31.5495 77.8461 26.1099 83.0879 19.978C82.7912 22.055 83.4835 22.9451 85.6593 23.2418C88.1319 23.5385 88.8242 26.3077 90.8022 27.5934C91.6923 28.1868 89.7143 31.9451 88.5275 32.044C87.8352 32.1429 87.1429 32.1429 86.3516 32.1429C82.5934 32.4396 81.6044 33.7253 82.989 37.1868C84.0769 40.1539 83.7802 43.4176 82.1978 46.0879C79.9231 50.6374 81.1099 55.3846 81.011 60.1319C81.011 60.9231 81.6044 61.5165 82.3956 61.6154C83.0879 61.8132 83.3846 62.5055 83.1868 63.1978C83.1868 63.2967 83.0879 63.3956 83.0879 63.3956C81.1099 63.7912 79.1319 63.7912 77.0549 63.5934C75.967 62.2088 76.6593 60.1319 75.0769 57.9561C74.8791 59.8352 72.5055 60.5275 74.6813 62.2088C74.8791 62.8022 74.8791 63.3956 74.7802 63.989C67.5604 63.6923 60.4396 65.1758 53.2198 64.8791H45.5055L41.5494 63.4945C39.6703 62.1099 38.6813 60.4286 39.4725 58.055C39.6703 57.5604 40.1648 57.1648 40.6593 57.0659C41.3516 56.967 41.5494 57.6593 41.4505 58.1539C41.1538 60.7253 43.033 61.2198 44.8132 61.6154C47.2857 62.011 49.7582 62.1099 52.2308 61.8132C52.9231 61.9121 53.5165 61.4176 53.6154 60.7253C53.6154 60.5275 53.6154 60.4286 53.6154 60.2308C53.4176 53.9011 53.6154 47.5714 53.022 41.3407C52.5275 35.4066 51.6374 29.2747 45.2088 26.011C43.6264 25.2198 43.033 25.3187 42.0439 26.7033C40.0659 29.5714 37.8901 32.3407 35.6154 34.9121C32.5494 38.3736 32.2527 42.5275 32.7472 46.7802C32.945 47.8681 33.7363 48.8572 34.7253 49.2528C35.7143 49.6484 37.0989 49.7473 36.8022 51.3297C36.5055 52.5165 35.4176 53.4066 34.2308 53.4066C32.8461 53.1099 31.3626 53.5055 30.1758 52.6154C30.1758 51.3297 29.8791 50.044 29.1868 48.9561C27.5055 45.2967 27.2088 41.1429 28.2967 37.2857C28.7912 35.2088 29.0879 33.033 29.3846 30.8572C27.9011 32.1429 26.7143 33.033 25.7253 34.022C24.6374 35.011 22.4615 35.8022 22.0659 37.5824C20.7802 43.3187 19.5934 49.1539 22.8571 54.6923C23.7472 56.2747 24.0439 57.6593 22.6593 59.1429C21.2747 59.8352 19.4945 59.8352 17.8132 59.1429ZM58.3626 49.8462H59.1538C61.8242 44.2088 60.5385 38.0769 61.6264 31.6484C59.945 33.033 58.2637 33.5275 58.3626 35.7033C58.4615 40.4506 58.3626 45.0989 58.3626 49.8462ZM22.6593 25.5165L22.4615 25.3187C22.3626 25.3187 22.3626 25.4176 22.2637 25.5165C22.2637 25.6154 22.3626 25.6154 22.3626 25.7143L22.6593 25.5165Z" fill="#333333"/>
</svg>
