<svg width="40" height="35" viewBox="0 0 40 35" fill="none" xmlns="http://www.w3.org/2000/svg">
<path d="M36.7299 6.90555C34.1022 3.24619 30.1898 0.885309 25.7518 0.177046C21.2555 -0.472195 16.8175 0.590199 13.1971 3.30521C9.57665 6.02022 7.18249 9.97469 6.54015 14.4604C6.073 17.5295 6.48176 20.6577 7.59125 23.4317L0.875916 28.4485C-0.0583903 29.1568 -0.291967 30.5143 0.408763 31.5177L2.27738 34.1147C2.97811 35.059 4.32117 35.2951 5.31387 34.5868L11.9124 29.688C14.3066 31.8718 17.3431 33.3474 20.6131 33.8786C21.4891 33.9966 22.3066 34.0556 23.1825 34.0556C26.7445 34.0556 30.1898 32.9342 33.1095 30.7504C36.7883 28.0354 39.1241 24.0809 39.8248 19.5953C40.4672 15.1096 39.4161 10.5649 36.7299 6.90555ZM36.9051 19.1231C36.3212 22.8415 34.3942 26.0877 31.4161 28.3305C28.438 30.5733 24.7591 31.4587 21.0803 30.9275C17.4015 30.3373 14.1898 28.3895 11.9708 25.3794C9.75183 22.3693 8.87592 18.6509 9.40147 14.9325C9.92701 11.2141 11.9124 7.96794 14.8905 5.72511C17.2847 3.95445 20.146 3.0101 23.1241 3.0101C23.8248 3.0101 24.5256 3.06912 25.2263 3.18716C28.9051 3.77738 32.1168 5.72511 34.3358 8.73523C36.6131 11.6863 37.4891 15.4047 36.9051 19.1231ZM24.4088 14.6964C25.2263 14.8735 25.9854 15.2276 26.6277 15.8769C27.0365 16.29 27.3869 16.8212 27.6204 17.3524C27.854 17.8246 28.0292 18.2968 28.2628 18.769C28.3796 19.005 28.4964 19.2411 28.6715 19.4772C28.7883 19.6543 28.9051 19.7723 29.0803 19.8904C30.3066 20.8347 30.8321 22.3693 30.4818 23.8448C30.0146 25.9106 27.9124 27.2091 25.8686 26.7369C25.0511 26.5598 24.292 26.4418 23.4745 26.4418C22.4818 26.4418 21.4891 26.5008 20.4964 26.7369C19.9124 26.855 19.2701 26.914 18.6861 26.7369C16.8759 26.3238 15.4745 24.5531 15.7664 22.4873C15.8832 21.4249 16.4088 20.5396 17.2263 19.8313C17.4015 19.7133 17.5183 19.5362 17.635 19.3592C17.7518 19.1821 17.8686 19.005 17.927 18.828C18.1022 18.4738 18.2774 18.1197 18.3942 17.7656C18.6277 17.2934 18.8613 16.8212 19.2117 16.4081C19.7372 15.6998 20.3796 15.1686 21.1971 14.8735C21.781 14.6374 22.4234 14.5784 23.1241 14.5784C23.6496 14.5784 24 14.6374 24.4088 14.6964ZM17.7518 7.96794C17.8686 7.61381 18.0438 7.25968 18.3358 6.96457C18.7445 6.55141 19.2117 6.43337 19.7956 6.55141C20.146 6.66946 20.4964 6.84652 20.7883 7.08261C21.2555 7.49576 21.6058 8.02696 21.8394 8.55816C22.1314 9.2074 22.3066 9.91566 22.365 10.6239C22.4234 11.1551 22.365 11.6863 22.2482 12.2175C22.1314 12.6307 21.9562 12.9848 21.6642 13.2799C21.2555 13.7521 20.7299 13.8701 20.0876 13.7521C19.7956 13.6931 19.5037 13.516 19.2701 13.3389C18.9197 13.0438 18.6277 12.6897 18.3942 12.3356C17.8102 11.3912 17.5766 10.3878 17.5183 9.32544C17.5183 8.85327 17.5766 8.38109 17.7518 7.96794ZM33.6934 14.1652C33.5183 15.1096 33.1679 15.9359 32.584 16.7032C32.292 17.1163 31.9416 17.4705 31.5329 17.7066C31.1241 18.0017 30.6569 18.2378 30.1314 18.2968C29.5475 18.3558 29.0803 18.1787 28.7299 17.7066C28.6131 17.5295 28.4964 17.3524 28.438 17.1163C28.2628 16.5851 28.2628 16.0539 28.3796 15.5227C28.4964 14.9325 28.6715 14.3423 28.9635 13.8111C29.3139 13.1028 29.781 12.5126 30.4234 12.0405C30.7737 11.7453 31.1241 11.5683 31.5329 11.4502C31.8248 11.3322 32.1752 11.3322 32.4672 11.3912C32.9343 11.5093 33.2847 11.8044 33.5183 12.2765C33.6934 12.6307 33.7518 13.0438 33.7518 13.516C33.7518 13.6931 33.6934 13.9292 33.6934 14.1652ZM12.6715 13.1619C12.7299 12.8077 12.7883 12.4536 12.9635 12.1585C13.1971 11.7453 13.5475 11.5093 14.0146 11.3912C14.3066 11.3322 14.6569 11.3912 14.9489 11.5093C15.4161 11.6863 15.8832 11.9224 16.2336 12.2765C16.8759 12.8668 17.4015 13.575 17.6934 14.4013C17.927 15.0506 18.1022 15.6998 18.0438 16.4081C18.0438 16.7622 17.927 17.1163 17.8102 17.4114C17.5766 17.8836 17.2263 18.1197 16.7591 18.2378C16.4088 18.2968 16.1168 18.2378 15.8248 18.1787C15.3577 18.0017 14.8905 17.7656 14.5402 17.4114C13.8978 16.8212 13.3723 16.113 13.0803 15.2867C12.8467 14.6964 12.7299 14.1062 12.7299 13.457C12.6131 13.398 12.6131 13.2799 12.6715 13.1619ZM27.9124 11.5093C27.6788 12.0995 27.3869 12.6307 26.9197 13.0438C26.6277 13.3389 26.3358 13.575 25.9854 13.6931C25.2847 13.9882 24.6423 13.8111 24.1752 13.2209C24 13.0438 23.8832 12.8077 23.8248 12.5716C23.6496 12.0995 23.5329 11.6273 23.5329 11.0961C23.5329 10.4469 23.6496 9.7386 23.8248 9.14838C24.0584 8.49914 24.3504 7.8499 24.8175 7.37772C25.1095 7.08261 25.4015 6.7875 25.8102 6.61044C26.511 6.31533 27.2117 6.49239 27.6788 7.08261C27.7956 7.25968 27.9124 7.43674 28.0292 7.67283C28.2628 8.20403 28.3212 8.73522 28.3212 9.26642C28.3212 10.0927 28.2044 10.801 27.9124 11.5093Z" fill="#333333"/>
</svg>
